<?xml version="1.0" encoding="UTF-8" standalone="no" ?>
<!DOCTYPE svg PUBLIC "-//W3C//DTD SVG 1.1//EN" "http://www.w3.org/Graphics/SVG/1.1/DTD/svg11.dtd">
<svg xmlns="http://www.w3.org/2000/svg" xmlns:xlink="http://www.w3.org/1999/xlink" version="1.1" width="500" height="100" viewBox="0 0 500 100" xml:space="preserve">
<desc>Created with Fabric.js 4.6.0</desc>
<defs>
</defs>
<g transform="matrix(0.21 0 0 0.21 10.53 15.16)" id="1CkHU315dGXuXKoBfCfs1"  >
<path style="stroke: rgb(0,0,0); stroke-width: 1; stroke-dasharray: none; stroke-linecap: butt; stroke-dashoffset: 0; stroke-linejoin: miter; stroke-miterlimit: 4; fill: rgb(255,255,255); fill-rule: nonzero; opacity: 1;" vector-effect="non-scaling-stroke"  transform=" translate(0, 0)" d="M 0 -32.60869 C 18 -32.60869 32.60869 -18.000000000000004 32.60869 0 C 32.60869 18 18.000000000000004 32.60869 0 32.60869 C -18 32.60869 -32.60869 18.000000000000004 -32.60869 0 C -32.60869 -18 -18.000000000000004 -32.60869 0 -32.60869 z" stroke-linecap="round" />
</g>
<g transform="matrix(0.21 0 0 0.21 10.5 33.64)" id="cSuCRa0lSPFkhaoc7ImT3"  >
<path style="stroke: rgb(0,0,0); stroke-width: 1; stroke-dasharray: none; stroke-linecap: butt; stroke-dashoffset: 0; stroke-linejoin: miter; stroke-miterlimit: 4; fill: rgb(255,255,255); fill-rule: nonzero; opacity: 1;" vector-effect="non-scaling-stroke"  transform=" translate(0, 0)" d="M 0 -32.60869 C 18 -32.60869 32.60869 -18.000000000000004 32.60869 0 C 32.60869 18 18.000000000000004 32.60869 0 32.60869 C -18 32.60869 -32.60869 18.000000000000004 -32.60869 0 C -32.60869 -18 -18.000000000000004 -32.60869 0 -32.60869 z" stroke-linecap="round" />
</g>
<g transform="matrix(0.21 0 0 0.21 10.5 52.92)" id="U53COWnId_0RmP0pMMQT2"  >
<path style="stroke: rgb(0,0,0); stroke-width: 1; stroke-dasharray: none; stroke-linecap: butt; stroke-dashoffset: 0; stroke-linejoin: miter; stroke-miterlimit: 4; fill: rgb(255,255,255); fill-rule: nonzero; opacity: 1;" vector-effect="non-scaling-stroke"  transform=" translate(0, 0)" d="M 0 -32.60869 C 18 -32.60869 32.60869 -18.000000000000004 32.60869 0 C 32.60869 18 18.000000000000004 32.60869 0 32.60869 C -18 32.60869 -32.60869 18.000000000000004 -32.60869 0 C -32.60869 -18 -18.000000000000004 -32.60869 0 -32.60869 z" stroke-linecap="round" />
</g>
<g transform="matrix(0.21 0 0 0.21 10.55 71.67)" id="fvhFvzcVp8J5sR2wTB2TA"  >
<path style="stroke: rgb(0,0,0); stroke-width: 1; stroke-dasharray: none; stroke-linecap: butt; stroke-dashoffset: 0; stroke-linejoin: miter; stroke-miterlimit: 4; fill: rgb(255,255,255); fill-rule: nonzero; opacity: 1;" vector-effect="non-scaling-stroke"  transform=" translate(0, 0)" d="M 0 -32.60869 C 18 -32.60869 32.60869 -18.000000000000004 32.60869 0 C 32.60869 18 18.000000000000004 32.60869 0 32.60869 C -18 32.60869 -32.60869 18.000000000000004 -32.60869 0 C -32.60869 -18 -18.000000000000004 -32.60869 0 -32.60869 z" stroke-linecap="round" />
</g>
<g transform="matrix(0.21 0 0 0.21 47.69 52.92)" id="EwZDQQiutpm9gIRY0AAIV"  >
<path style="stroke: rgb(0,0,0); stroke-width: 1; stroke-dasharray: none; stroke-linecap: butt; stroke-dashoffset: 0; stroke-linejoin: miter; stroke-miterlimit: 4; fill: rgb(255,255,255); fill-rule: nonzero; opacity: 1;" vector-effect="non-scaling-stroke"  transform=" translate(0, 0)" d="M 0 -32.60869 C 18 -32.60869 32.60869 -18.000000000000004 32.60869 0 C 32.60869 18 18.000000000000004 32.60869 0 32.60869 C -18 32.60869 -32.60869 18.000000000000004 -32.60869 0 C -32.60869 -18 -18.000000000000004 -32.60869 0 -32.60869 z" stroke-linecap="round" />
</g>
<g transform="matrix(0.21 0 0 0.21 47.69 33.64)" id="VAkgZCIHrYoWLsgXf4N_4"  >
<path style="stroke: rgb(0,0,0); stroke-width: 1; stroke-dasharray: none; stroke-linecap: butt; stroke-dashoffset: 0; stroke-linejoin: miter; stroke-miterlimit: 4; fill: rgb(255,255,255); fill-rule: nonzero; opacity: 1;" vector-effect="non-scaling-stroke"  transform=" translate(0, 0)" d="M 0 -32.60869 C 18 -32.60869 32.60869 -18.000000000000004 32.60869 0 C 32.60869 18 18.000000000000004 32.60869 0 32.60869 C -18 32.60869 -32.60869 18.000000000000004 -32.60869 0 C -32.60869 -18 -18.000000000000004 -32.60869 0 -32.60869 z" stroke-linecap="round" />
</g>
<g transform="matrix(0.21 0 0 0.21 28.86 15.19)" id="RX5wtQqt4QXaMDlZpZi3c"  >
<path style="stroke: rgb(0,0,0); stroke-width: 1; stroke-dasharray: none; stroke-linecap: butt; stroke-dashoffset: 0; stroke-linejoin: miter; stroke-miterlimit: 4; fill: rgb(255,255,255); fill-rule: nonzero; opacity: 1;" vector-effect="non-scaling-stroke"  transform=" translate(0, 0)" d="M 0 -32.60869 C 18 -32.60869 32.60869 -18.000000000000004 32.60869 0 C 32.60869 18 18.000000000000004 32.60869 0 32.60869 C -18 32.60869 -32.60869 18.000000000000004 -32.60869 0 C -32.60869 -18 -18.000000000000004 -32.60869 0 -32.60869 z" stroke-linecap="round" />
</g>
<g transform="matrix(0.21 0 0 0.21 47.69 15.19)" id="dBo0EhP-r0BN-yxpWJoP8"  >
<path style="stroke: rgb(0,0,0); stroke-width: 1; stroke-dasharray: none; stroke-linecap: butt; stroke-dashoffset: 0; stroke-linejoin: miter; stroke-miterlimit: 4; fill: rgb(255,255,255); fill-rule: nonzero; opacity: 1;" vector-effect="non-scaling-stroke"  transform=" translate(0, 0)" d="M 0 -32.60869 C 18 -32.60869 32.60869 -18.000000000000004 32.60869 0 C 32.60869 18 18.000000000000004 32.60869 0 32.60869 C -18 32.60869 -32.60869 18.000000000000004 -32.60869 0 C -32.60869 -18 -18.000000000000004 -32.60869 0 -32.60869 z" stroke-linecap="round" />
</g>
<g transform="matrix(0.21 0 0 0.21 103.89 33.64)" id="DGiW-6zE3q_0iewvxE0pF"  >
<path style="stroke: rgb(0,0,0); stroke-width: 1; stroke-dasharray: none; stroke-linecap: butt; stroke-dashoffset: 0; stroke-linejoin: miter; stroke-miterlimit: 4; fill: rgb(255,255,255); fill-rule: nonzero; opacity: 1;" vector-effect="non-scaling-stroke"  transform=" translate(0, 0)" d="M 0 -32.60869 C 18 -32.60869 32.60869 -18.000000000000004 32.60869 0 C 32.60869 18 18.000000000000004 32.60869 0 32.60869 C -18 32.60869 -32.60869 18.000000000000004 -32.60869 0 C -32.60869 -18 -18.000000000000004 -32.60869 0 -32.60869 z" stroke-linecap="round" />
</g>
<g transform="matrix(0.21 0 0 0.21 103.89 52.92)" id="9OiRteY4Lg8gLwF-sLGPp"  >
<path style="stroke: rgb(0,0,0); stroke-width: 1; stroke-dasharray: none; stroke-linecap: butt; stroke-dashoffset: 0; stroke-linejoin: miter; stroke-miterlimit: 4; fill: rgb(255,255,255); fill-rule: nonzero; opacity: 1;" vector-effect="non-scaling-stroke"  transform=" translate(0, 0)" d="M 0 -32.60869 C 18 -32.60869 32.60869 -18.000000000000004 32.60869 0 C 32.60869 18 18.000000000000004 32.60869 0 32.60869 C -18 32.60869 -32.60869 18.000000000000004 -32.60869 0 C -32.60869 -18 -18.000000000000004 -32.60869 0 -32.60869 z" stroke-linecap="round" />
</g>
<g transform="matrix(0.21 0 0 0.21 83.47 15.19)" id="1kMt5j56z_AuJ5Up854Oi"  >
<path style="stroke: rgb(0,0,0); stroke-width: 1; stroke-dasharray: none; stroke-linecap: butt; stroke-dashoffset: 0; stroke-linejoin: miter; stroke-miterlimit: 4; fill: rgb(255,255,255); fill-rule: nonzero; opacity: 1;" vector-effect="non-scaling-stroke"  transform=" translate(0, 0)" d="M 0 -32.60869 C 18 -32.60869 32.60869 -18.000000000000004 32.60869 0 C 32.60869 18 18.000000000000004 32.60869 0 32.60869 C -18 32.60869 -32.60869 18.000000000000004 -32.60869 0 C -32.60869 -18 -18.000000000000004 -32.60869 0 -32.60869 z" stroke-linecap="round" />
</g>
<g transform="matrix(0.21 0 0 0.21 103.89 15.12)" id="tkUdX_ASggmVysEQs7kra"  >
<path style="stroke: rgb(0,0,0); stroke-width: 1; stroke-dasharray: none; stroke-linecap: butt; stroke-dashoffset: 0; stroke-linejoin: miter; stroke-miterlimit: 4; fill: rgb(255,255,255); fill-rule: nonzero; opacity: 1;" vector-effect="non-scaling-stroke"  transform=" translate(0, 0)" d="M 0 -32.60869 C 18 -32.60869 32.60869 -18.000000000000004 32.60869 0 C 32.60869 18 18.000000000000004 32.60869 0 32.60869 C -18 32.60869 -32.60869 18.000000000000004 -32.60869 0 C -32.60869 -18 -18.000000000000004 -32.60869 0 -32.60869 z" stroke-linecap="round" />
</g>
<g transform="matrix(0.21 0 0 0.21 122.03 15.12)" id="Ukr717I26tJ0-_meLTmly"  >
<path style="stroke: rgb(0,0,0); stroke-width: 1; stroke-dasharray: none; stroke-linecap: butt; stroke-dashoffset: 0; stroke-linejoin: miter; stroke-miterlimit: 4; fill: rgb(255,255,255); fill-rule: nonzero; opacity: 1;" vector-effect="non-scaling-stroke"  transform=" translate(0, 0)" d="M 0 -32.60869 C 18 -32.60869 32.60869 -18.000000000000004 32.60869 0 C 32.60869 18 18.000000000000004 32.60869 0 32.60869 C -18 32.60869 -32.60869 18.000000000000004 -32.60869 0 C -32.60869 -18 -18.000000000000004 -32.60869 0 -32.60869 z" stroke-linecap="round" />
</g>
<g transform="matrix(0.21 0 0 0.21 157.53 15.19)" id="i9rqFYe266Ak8ycRKOD3y"  >
<path style="stroke: rgb(0,0,0); stroke-width: 1; stroke-dasharray: none; stroke-linecap: butt; stroke-dashoffset: 0; stroke-linejoin: miter; stroke-miterlimit: 4; fill: rgb(255,255,255); fill-rule: nonzero; opacity: 1;" vector-effect="non-scaling-stroke"  transform=" translate(0, 0)" d="M 0 -32.60869 C 18 -32.60869 32.60869 -18.000000000000004 32.60869 0 C 32.60869 18 18.000000000000004 32.60869 0 32.60869 C -18 32.60869 -32.60869 18.000000000000004 -32.60869 0 C -32.60869 -18 -18.000000000000004 -32.60869 0 -32.60869 z" stroke-linecap="round" />
</g>
<g transform="matrix(0.21 0 0 0.21 157.53 33.64)" id="XEutEczupibuxQs5ovqqy"  >
<path style="stroke: rgb(0,0,0); stroke-width: 1; stroke-dasharray: none; stroke-linecap: butt; stroke-dashoffset: 0; stroke-linejoin: miter; stroke-miterlimit: 4; fill: rgb(255,255,255); fill-rule: nonzero; opacity: 1;" vector-effect="non-scaling-stroke"  transform=" translate(0, 0)" d="M 0 -32.60869 C 18 -32.60869 32.60869 -18.000000000000004 32.60869 0 C 32.60869 18 18.000000000000004 32.60869 0 32.60869 C -18 32.60869 -32.60869 18.000000000000004 -32.60869 0 C -32.60869 -18 -18.000000000000004 -32.60869 0 -32.60869 z" stroke-linecap="round" />
</g>
<g transform="matrix(0.21 0 0 0.21 157.53 52.92)" id="_1Se8nb8-qSHoLkTlEyQ5"  >
<path style="stroke: rgb(0,0,0); stroke-width: 1; stroke-dasharray: none; stroke-linecap: butt; stroke-dashoffset: 0; stroke-linejoin: miter; stroke-miterlimit: 4; fill: rgb(255,255,255); fill-rule: nonzero; opacity: 1;" vector-effect="non-scaling-stroke"  transform=" translate(0, 0)" d="M 0 -32.60869 C 18 -32.60869 32.60869 -18.000000000000004 32.60869 0 C 32.60869 18 18.000000000000004 32.60869 0 32.60869 C -18 32.60869 -32.60869 18.000000000000004 -32.60869 0 C -32.60869 -18 -18.000000000000004 -32.60869 0 -32.60869 z" stroke-linecap="round" />
</g>
<g transform="matrix(0.21 0 0 0.21 176.23 52.92)" id="yBCZZFd5ZIwCCvOBPewgF"  >
<path style="stroke: rgb(0,0,0); stroke-width: 1; stroke-dasharray: none; stroke-linecap: butt; stroke-dashoffset: 0; stroke-linejoin: miter; stroke-miterlimit: 4; fill: rgb(255,255,255); fill-rule: nonzero; opacity: 1;" vector-effect="non-scaling-stroke"  transform=" translate(0, 0)" d="M 0 -32.60869 C 18 -32.60869 32.60869 -18.000000000000004 32.60869 0 C 32.60869 18 18.000000000000004 32.60869 0 32.60869 C -18 32.60869 -32.60869 18.000000000000004 -32.60869 0 C -32.60869 -18 -18.000000000000004 -32.60869 0 -32.60869 z" stroke-linecap="round" />
</g>
<g transform="matrix(0.21 0 0 0.21 194.71 15.19)" id="Ab5fPPt6OUsAfMsnPuMnp"  >
<path style="stroke: rgb(0,0,0); stroke-width: 1; stroke-dasharray: none; stroke-linecap: butt; stroke-dashoffset: 0; stroke-linejoin: miter; stroke-miterlimit: 4; fill: rgb(255,255,255); fill-rule: nonzero; opacity: 1;" vector-effect="non-scaling-stroke"  transform=" translate(0, 0)" d="M 0 -32.60869 C 18 -32.60869 32.60869 -18.000000000000004 32.60869 0 C 32.60869 18 18.000000000000004 32.60869 0 32.60869 C -18 32.60869 -32.60869 18.000000000000004 -32.60869 0 C -32.60869 -18 -18.000000000000004 -32.60869 0 -32.60869 z" stroke-linecap="round" />
</g>
<g transform="matrix(0.21 0 0 0.21 194.71 33.64)" id="_23LoArdNAJxl6oq07lPz"  >
<path style="stroke: rgb(0,0,0); stroke-width: 1; stroke-dasharray: none; stroke-linecap: butt; stroke-dashoffset: 0; stroke-linejoin: miter; stroke-miterlimit: 4; fill: rgb(255,255,255); fill-rule: nonzero; opacity: 1;" vector-effect="non-scaling-stroke"  transform=" translate(0, 0)" d="M 0 -32.60869 C 18 -32.60869 32.60869 -18.000000000000004 32.60869 0 C 32.60869 18 18.000000000000004 32.60869 0 32.60869 C -18 32.60869 -32.60869 18.000000000000004 -32.60869 0 C -32.60869 -18 -18.000000000000004 -32.60869 0 -32.60869 z" stroke-linecap="round" />
</g>
<g transform="matrix(0.21 0 0 0.21 194.71 52.92)" id="O9MkYJWeTPJpF3_8Meidr"  >
<path style="stroke: rgb(0,0,0); stroke-width: 1; stroke-dasharray: none; stroke-linecap: butt; stroke-dashoffset: 0; stroke-linejoin: miter; stroke-miterlimit: 4; fill: rgb(255,255,255); fill-rule: nonzero; opacity: 1;" vector-effect="non-scaling-stroke"  transform=" translate(0, 0)" d="M 0 -32.60869 C 18 -32.60869 32.60869 -18.000000000000004 32.60869 0 C 32.60869 18 18.000000000000004 32.60869 0 32.60869 C -18 32.60869 -32.60869 18.000000000000004 -32.60869 0 C -32.60869 -18 -18.000000000000004 -32.60869 0 -32.60869 z" stroke-linecap="round" />
</g>
<g transform="matrix(0.21 0 0 0.21 231.64 16.42)" id="H2Avzfrdk2JYRgTDQAEK6"  >
<path style="stroke: rgb(0,0,0); stroke-width: 1; stroke-dasharray: none; stroke-linecap: butt; stroke-dashoffset: 0; stroke-linejoin: miter; stroke-miterlimit: 4; fill: rgb(0,0,0); fill-rule: nonzero; opacity: 1;" vector-effect="non-scaling-stroke"  transform=" translate(0, 0)" d="M 0 -32.60869 C 18 -32.60869 32.60869 -18.000000000000004 32.60869 0 C 32.60869 18 18.000000000000004 32.60869 0 32.60869 C -18 32.60869 -32.60869 18.000000000000004 -32.60869 0 C -32.60869 -18 -18.000000000000004 -32.60869 0 -32.60869 z" stroke-linecap="round" />
</g>
<g transform="matrix(0.21 0 0 0.21 231.64 33.64)" id="4hn8ifASGX7sOX2JRfuPd"  >
<path style="stroke: rgb(0,0,0); stroke-width: 1; stroke-dasharray: none; stroke-linecap: butt; stroke-dashoffset: 0; stroke-linejoin: miter; stroke-miterlimit: 4; fill: rgb(0,0,0); fill-rule: nonzero; opacity: 1;" vector-effect="non-scaling-stroke"  transform=" translate(0, 0)" d="M 0 -32.60869 C 18 -32.60869 32.60869 -18.000000000000004 32.60869 0 C 32.60869 18 18.000000000000004 32.60869 0 32.60869 C -18 32.60869 -32.60869 18.000000000000004 -32.60869 0 C -32.60869 -18 -18.000000000000004 -32.60869 0 -32.60869 z" stroke-linecap="round" />
</g>
<g transform="matrix(0.21 0 0 0.21 231.64 52.92)" id="KsXST5Mrofb3d4Eeb3u_V"  >
<path style="stroke: rgb(0,0,0); stroke-width: 1; stroke-dasharray: none; stroke-linecap: butt; stroke-dashoffset: 0; stroke-linejoin: miter; stroke-miterlimit: 4; fill: rgb(0,0,0); fill-rule: nonzero; opacity: 1;" vector-effect="non-scaling-stroke"  transform=" translate(0, 0)" d="M 0 -32.60869 C 18 -32.60869 32.60869 -18.000000000000004 32.60869 0 C 32.60869 18 18.000000000000004 32.60869 0 32.60869 C -18 32.60869 -32.60869 18.000000000000004 -32.60869 0 C -32.60869 -18 -18.000000000000004 -32.60869 0 -32.60869 z" stroke-linecap="round" />
</g>
<g transform="matrix(0.21 0 0 0.21 250.59 15.19)" id="Jzg0z6t57SWutQzwY5QfG"  >
<path style="stroke: rgb(0,0,0); stroke-width: 1; stroke-dasharray: none; stroke-linecap: butt; stroke-dashoffset: 0; stroke-linejoin: miter; stroke-miterlimit: 4; fill: rgb(0,0,0); fill-rule: nonzero; opacity: 1;" vector-effect="non-scaling-stroke"  transform=" translate(0, 0)" d="M 0 -32.60869 C 18 -32.60869 32.60869 -18.000000000000004 32.60869 0 C 32.60869 18 18.000000000000004 32.60869 0 32.60869 C -18 32.60869 -32.60869 18.000000000000004 -32.60869 0 C -32.60869 -18 -18.000000000000004 -32.60869 0 -32.60869 z" stroke-linecap="round" />
</g>
<g transform="matrix(0.21 0 0 0.21 250.59 52.92)" id="XmO2xud5RxLUxRa0lcpNg"  >
<path style="stroke: rgb(0,0,0); stroke-width: 1; stroke-dasharray: none; stroke-linecap: butt; stroke-dashoffset: 0; stroke-linejoin: miter; stroke-miterlimit: 4; fill: rgb(0,0,0); fill-rule: nonzero; opacity: 1;" vector-effect="non-scaling-stroke"  transform=" translate(0, 0)" d="M 0 -32.60869 C 18 -32.60869 32.60869 -18.000000000000004 32.60869 0 C 32.60869 18 18.000000000000004 32.60869 0 32.60869 C -18 32.60869 -32.60869 18.000000000000004 -32.60869 0 C -32.60869 -18 -18.000000000000004 -32.60869 0 -32.60869 z" stroke-linecap="round" />
</g>
<g transform="matrix(0.21 0 0 0.21 231.64 70.45)" id="xUVP_C1Y1Zt5STi9RGs7F"  >
<path style="stroke: rgb(0,0,0); stroke-width: 1; stroke-dasharray: none; stroke-linecap: butt; stroke-dashoffset: 0; stroke-linejoin: miter; stroke-miterlimit: 4; fill: rgb(0,0,0); fill-rule: nonzero; opacity: 1;" vector-effect="non-scaling-stroke"  transform=" translate(0, 0)" d="M 0 -32.60869 C 18 -32.60869 32.60869 -18.000000000000004 32.60869 0 C 32.60869 18 18.000000000000004 32.60869 0 32.60869 C -18 32.60869 -32.60869 18.000000000000004 -32.60869 0 C -32.60869 -18 -18.000000000000004 -32.60869 0 -32.60869 z" stroke-linecap="round" />
</g>
<g transform="matrix(0.21 0 0 0.21 231.64 90.8)" id="fC-0xU7xPblRjaB-I2fQr"  >
<path style="stroke: rgb(0,0,0); stroke-width: 1; stroke-dasharray: none; stroke-linecap: butt; stroke-dashoffset: 0; stroke-linejoin: miter; stroke-miterlimit: 4; fill: rgb(0,0,0); fill-rule: nonzero; opacity: 1;" vector-effect="non-scaling-stroke"  transform=" translate(0, 0)" d="M 0 -32.60869 C 18 -32.60869 32.60869 -18.000000000000004 32.60869 0 C 32.60869 18 18.000000000000004 32.60869 0 32.60869 C -18 32.60869 -32.60869 18.000000000000004 -32.60869 0 C -32.60869 -18 -18.000000000000004 -32.60869 0 -32.60869 z" stroke-linecap="round" />
</g>
<g transform="matrix(0.21 0 0 0.21 250.59 90.8)" id="uDWoZxfWOWPRYtwCgqYQU"  >
<path style="stroke: rgb(0,0,0); stroke-width: 1; stroke-dasharray: none; stroke-linecap: butt; stroke-dashoffset: 0; stroke-linejoin: miter; stroke-miterlimit: 4; fill: rgb(0,0,0); fill-rule: nonzero; opacity: 1;" vector-effect="non-scaling-stroke"  transform=" translate(0, 0)" d="M 0 -32.60869 C 18 -32.60869 32.60869 -18.000000000000004 32.60869 0 C 32.60869 18 18.000000000000004 32.60869 0 32.60869 C -18 32.60869 -32.60869 18.000000000000004 -32.60869 0 C -32.60869 -18 -18.000000000000004 -32.60869 0 -32.60869 z" stroke-linecap="round" />
</g>
<g transform="matrix(0.21 0 0 0.21 47.69 70.45)" id="KaYX7qrW49Rkj8hN2KOzV"  >
<path style="stroke: rgb(0,0,0); stroke-width: 1; stroke-dasharray: none; stroke-linecap: butt; stroke-dashoffset: 0; stroke-linejoin: miter; stroke-miterlimit: 4; fill: rgb(255,255,255); fill-rule: nonzero; opacity: 1;" vector-effect="non-scaling-stroke"  transform=" translate(0, 0)" d="M 0 -32.60869 C 18 -32.60869 32.60869 -18.000000000000004 32.60869 0 C 32.60869 18 18.000000000000004 32.60869 0 32.60869 C -18 32.60869 -32.60869 18.000000000000004 -32.60869 0 C -32.60869 -18 -18.000000000000004 -32.60869 0 -32.60869 z" stroke-linecap="round" />
</g>
<g transform="matrix(0.21 0 0 0.21 10.55 89.27)" id="BXP-oBdiLVBuDqM0szX9T"  >
<path style="stroke: rgb(0,0,0); stroke-width: 1; stroke-dasharray: none; stroke-linecap: butt; stroke-dashoffset: 0; stroke-linejoin: miter; stroke-miterlimit: 4; fill: rgb(255,255,255); fill-rule: nonzero; opacity: 1;" vector-effect="non-scaling-stroke"  transform=" translate(0, 0)" d="M 0 -32.60869 C 18 -32.60869 32.60869 -18.000000000000004 32.60869 0 C 32.60869 18 18.000000000000004 32.60869 0 32.60869 C -18 32.60869 -32.60869 18.000000000000004 -32.60869 0 C -32.60869 -18 -18.000000000000004 -32.60869 0 -32.60869 z" stroke-linecap="round" />
</g>
<g transform="matrix(0.21 0 0 0.21 103.89 71.67)" id="sMJSTiGOLHe8N1WdiGrVg"  >
<path style="stroke: rgb(0,0,0); stroke-width: 1; stroke-dasharray: none; stroke-linecap: butt; stroke-dashoffset: 0; stroke-linejoin: miter; stroke-miterlimit: 4; fill: rgb(255,255,255); fill-rule: nonzero; opacity: 1;" vector-effect="non-scaling-stroke"  transform=" translate(0, 0)" d="M 0 -32.60869 C 18 -32.60869 32.60869 -18.000000000000004 32.60869 0 C 32.60869 18 18.000000000000004 32.60869 0 32.60869 C -18 32.60869 -32.60869 18.000000000000004 -32.60869 0 C -32.60869 -18 -18.000000000000004 -32.60869 0 -32.60869 z" stroke-linecap="round" />
</g>
<g transform="matrix(0.21 0 0 0.21 157.53 70.45)" id="FxyYC3G6AEcw9tKMBX15j"  >
<path style="stroke: rgb(0,0,0); stroke-width: 1; stroke-dasharray: none; stroke-linecap: butt; stroke-dashoffset: 0; stroke-linejoin: miter; stroke-miterlimit: 4; fill: rgb(255,255,255); fill-rule: nonzero; opacity: 1;" vector-effect="non-scaling-stroke"  transform=" translate(0, 0)" d="M 0 -32.60869 C 18 -32.60869 32.60869 -18.000000000000004 32.60869 0 C 32.60869 18 18.000000000000004 32.60869 0 32.60869 C -18 32.60869 -32.60869 18.000000000000004 -32.60869 0 C -32.60869 -18 -18.000000000000004 -32.60869 0 -32.60869 z" stroke-linecap="round" />
</g>
<g transform="matrix(0.21 0 0 0.21 155.63 89.27)" id="CXhKJrtaxlmxInXTWRlaa"  >
<path style="stroke: rgb(0,0,0); stroke-width: 1; stroke-dasharray: none; stroke-linecap: butt; stroke-dashoffset: 0; stroke-linejoin: miter; stroke-miterlimit: 4; fill: rgb(255,255,255); fill-rule: nonzero; opacity: 1;" vector-effect="non-scaling-stroke"  transform=" translate(0, 0)" d="M 0 -32.60869 C 18 -32.60869 32.60869 -18.000000000000004 32.60869 0 C 32.60869 18 18.000000000000004 32.60869 0 32.60869 C -18 32.60869 -32.60869 18.000000000000004 -32.60869 0 C -32.60869 -18 -18.000000000000004 -32.60869 0 -32.60869 z" stroke-linecap="round" />
</g>
<g transform="matrix(0.21 0 0 0.21 194.71 71.67)" id="r4Mlx_dvA2FYZm7BaXi1N"  >
<path style="stroke: rgb(0,0,0); stroke-width: 1; stroke-dasharray: none; stroke-linecap: butt; stroke-dashoffset: 0; stroke-linejoin: miter; stroke-miterlimit: 4; fill: rgb(255,255,255); fill-rule: nonzero; opacity: 1;" vector-effect="non-scaling-stroke"  transform=" translate(0, 0)" d="M 0 -32.60869 C 18 -32.60869 32.60869 -18.000000000000004 32.60869 0 C 32.60869 18 18.000000000000004 32.60869 0 32.60869 C -18 32.60869 -32.60869 18.000000000000004 -32.60869 0 C -32.60869 -18 -18.000000000000004 -32.60869 0 -32.60869 z" stroke-linecap="round" />
</g>
<g transform="matrix(0.21 0 0 0.21 194.71 89.27)" id="NpFEq5lMKlz0P-pgcvc9H"  >
<path style="stroke: rgb(0,0,0); stroke-width: 1; stroke-dasharray: none; stroke-linecap: butt; stroke-dashoffset: 0; stroke-linejoin: miter; stroke-miterlimit: 4; fill: rgb(255,255,255); fill-rule: nonzero; opacity: 1;" vector-effect="non-scaling-stroke"  transform=" translate(0, 0)" d="M 0 -32.60869 C 18 -32.60869 32.60869 -18.000000000000004 32.60869 0 C 32.60869 18 18.000000000000004 32.60869 0 32.60869 C -18 32.60869 -32.60869 18.000000000000004 -32.60869 0 C -32.60869 -18 -18.000000000000004 -32.60869 0 -32.60869 z" stroke-linecap="round" />
</g>
<g transform="matrix(0.21 0 0 0.21 47.69 89.27)" id="nYuc_9-PwPkdz0mlT84z2"  >
<path style="stroke: rgb(0,0,0); stroke-width: 1; stroke-dasharray: none; stroke-linecap: butt; stroke-dashoffset: 0; stroke-linejoin: miter; stroke-miterlimit: 4; fill: rgb(255,255,255); fill-rule: nonzero; opacity: 1;" vector-effect="non-scaling-stroke"  transform=" translate(0, 0)" d="M 0 -32.60869 C 18 -32.60869 32.60869 -18.000000000000004 32.60869 0 C 32.60869 18 18.000000000000004 32.60869 0 32.60869 C -18 32.60869 -32.60869 18.000000000000004 -32.60869 0 C -32.60869 -18 -18.000000000000004 -32.60869 0 -32.60869 z" stroke-linecap="round" />
</g>
<g transform="matrix(0.21 0 0 0.21 30.37 89.27)" id="xedu4u7Zzu5wQLGHIR6Wd"  >
<path style="stroke: rgb(0,0,0); stroke-width: 1; stroke-dasharray: none; stroke-linecap: butt; stroke-dashoffset: 0; stroke-linejoin: miter; stroke-miterlimit: 4; fill: rgb(255,255,255); fill-rule: nonzero; opacity: 1;" vector-effect="non-scaling-stroke"  transform=" translate(0, 0)" d="M 0 -32.60869 C 18 -32.60869 32.60869 -18.000000000000004 32.60869 0 C 32.60869 18 18.000000000000004 32.60869 0 32.60869 C -18 32.60869 -32.60869 18.000000000000004 -32.60869 0 C -32.60869 -18 -18.000000000000004 -32.60869 0 -32.60869 z" stroke-linecap="round" />
</g>
<g transform="matrix(0.21 0 0 0.21 103.89 89.27)" id="sB2CAQLxUJADoham8ekFV"  >
<path style="stroke: rgb(0,0,0); stroke-width: 1; stroke-dasharray: none; stroke-linecap: butt; stroke-dashoffset: 0; stroke-linejoin: miter; stroke-miterlimit: 4; fill: rgb(255,255,255); fill-rule: nonzero; opacity: 1;" vector-effect="non-scaling-stroke"  transform=" translate(0, 0)" d="M 0 -32.60869 C 18 -32.60869 32.60869 -18.000000000000004 32.60869 0 C 32.60869 18 18.000000000000004 32.60869 0 32.60869 C -18 32.60869 -32.60869 18.000000000000004 -32.60869 0 C -32.60869 -18 -18.000000000000004 -32.60869 0 -32.60869 z" stroke-linecap="round" />
</g>
<g transform="matrix(0.21 0 0 0.21 268.68 15.12)" id="A1CYYeUTV7zCo07myVy3t"  >
<path style="stroke: rgb(0,0,0); stroke-width: 1; stroke-dasharray: none; stroke-linecap: butt; stroke-dashoffset: 0; stroke-linejoin: miter; stroke-miterlimit: 4; fill: rgb(0,0,0); fill-rule: nonzero; opacity: 1;" vector-effect="non-scaling-stroke"  transform=" translate(0, 0)" d="M 0 -32.60869 C 18 -32.60869 32.60869 -18.000000000000004 32.60869 0 C 32.60869 18 18.000000000000004 32.60869 0 32.60869 C -18 32.60869 -32.60869 18.000000000000004 -32.60869 0 C -32.60869 -18 -18.000000000000004 -32.60869 0 -32.60869 z" stroke-linecap="round" />
</g>
<g transform="matrix(0.21 0 0 0.21 268.68 52.92)" id="quNjBFBgX-hS9iq9Qmz3R"  >
<path style="stroke: rgb(0,0,0); stroke-width: 1; stroke-dasharray: none; stroke-linecap: butt; stroke-dashoffset: 0; stroke-linejoin: miter; stroke-miterlimit: 4; fill: rgb(0,0,0); fill-rule: nonzero; opacity: 1;" vector-effect="non-scaling-stroke"  transform=" translate(0, 0)" d="M 0 -32.60869 C 18 -32.60869 32.60869 -18.000000000000004 32.60869 0 C 32.60869 18 18.000000000000004 32.60869 0 32.60869 C -18 32.60869 -32.60869 18.000000000000004 -32.60869 0 C -32.60869 -18 -18.000000000000004 -32.60869 0 -32.60869 z" stroke-linecap="round" />
</g>
<g transform="matrix(0.21 0 0 0.21 270.03 89.27)" id="7HSedwn75ygP1QTtNc8zz"  >
<path style="stroke: rgb(0,0,0); stroke-width: 1; stroke-dasharray: none; stroke-linecap: butt; stroke-dashoffset: 0; stroke-linejoin: miter; stroke-miterlimit: 4; fill: rgb(0,0,0); fill-rule: nonzero; opacity: 1;" vector-effect="non-scaling-stroke"  transform=" translate(0, 0)" d="M 0 -32.60869 C 18 -32.60869 32.60869 -18.000000000000004 32.60869 0 C 32.60869 18 18.000000000000004 32.60869 0 32.60869 C -18 32.60869 -32.60869 18.000000000000004 -32.60869 0 C -32.60869 -18 -18.000000000000004 -32.60869 0 -32.60869 z" stroke-linecap="round" />
</g>
<g transform="matrix(0.21 0 0 0.21 305.57 15.19)" id="Qkgp-LCTSeH7EjbXR3XVh"  >
<path style="stroke: rgb(0,0,0); stroke-width: 1; stroke-dasharray: none; stroke-linecap: butt; stroke-dashoffset: 0; stroke-linejoin: miter; stroke-miterlimit: 4; fill: rgb(0,0,0); fill-rule: nonzero; opacity: 1;" vector-effect="non-scaling-stroke"  transform=" translate(0, 0)" d="M 0 -32.60869 C 18 -32.60869 32.60869 -18.000000000000004 32.60869 0 C 32.60869 18 18.000000000000004 32.60869 0 32.60869 C -18 32.60869 -32.60869 18.000000000000004 -32.60869 0 C -32.60869 -18 -18.000000000000004 -32.60869 0 -32.60869 z" stroke-linecap="round" />
</g>
<g transform="matrix(0.21 0 0 0.21 305.57 33.64)" id="duuY0ez0bJzgvSIJkGyyt"  >
<path style="stroke: rgb(0,0,0); stroke-width: 1; stroke-dasharray: none; stroke-linecap: butt; stroke-dashoffset: 0; stroke-linejoin: miter; stroke-miterlimit: 4; fill: rgb(0,0,0); fill-rule: nonzero; opacity: 1;" vector-effect="non-scaling-stroke"  transform=" translate(0, 0)" d="M 0 -32.60869 C 18 -32.60869 32.60869 -18.000000000000004 32.60869 0 C 32.60869 18 18.000000000000004 32.60869 0 32.60869 C -18 32.60869 -32.60869 18.000000000000004 -32.60869 0 C -32.60869 -18 -18.000000000000004 -32.60869 0 -32.60869 z" stroke-linecap="round" />
</g>
<g transform="matrix(0.21 0 0 0.21 305.57 52.92)" id="pkxaEqNI7cxUr011rh27Y"  >
<path style="stroke: rgb(0,0,0); stroke-width: 1; stroke-dasharray: none; stroke-linecap: butt; stroke-dashoffset: 0; stroke-linejoin: miter; stroke-miterlimit: 4; fill: rgb(0,0,0); fill-rule: nonzero; opacity: 1;" vector-effect="non-scaling-stroke"  transform=" translate(0, 0)" d="M 0 -32.60869 C 18 -32.60869 32.60869 -18.000000000000004 32.60869 0 C 32.60869 18 18.000000000000004 32.60869 0 32.60869 C -18 32.60869 -32.60869 18.000000000000004 -32.60869 0 C -32.60869 -18 -18.000000000000004 -32.60869 0 -32.60869 z" stroke-linecap="round" />
</g>
<g transform="matrix(0.21 0 0 0.21 305.57 71.67)" id="C3bOHdkUzAk23nWVg-TS0"  >
<path style="stroke: rgb(0,0,0); stroke-width: 1; stroke-dasharray: none; stroke-linecap: butt; stroke-dashoffset: 0; stroke-linejoin: miter; stroke-miterlimit: 4; fill: rgb(0,0,0); fill-rule: nonzero; opacity: 1;" vector-effect="non-scaling-stroke"  transform=" translate(0, 0)" d="M 0 -32.60869 C 18 -32.60869 32.60869 -18.000000000000004 32.60869 0 C 32.60869 18 18.000000000000004 32.60869 0 32.60869 C -18 32.60869 -32.60869 18.000000000000004 -32.60869 0 C -32.60869 -18 -18.000000000000004 -32.60869 0 -32.60869 z" stroke-linecap="round" />
</g>
<g transform="matrix(0.21 0 0 0.21 305.57 89.27)" id="9YdYAqSIMxaOJCOuMTLXL"  >
<path style="stroke: rgb(0,0,0); stroke-width: 1; stroke-dasharray: none; stroke-linecap: butt; stroke-dashoffset: 0; stroke-linejoin: miter; stroke-miterlimit: 4; fill: rgb(0,0,0); fill-rule: nonzero; opacity: 1;" vector-effect="non-scaling-stroke"  transform=" translate(0, 0)" d="M 0 -32.60869 C 18 -32.60869 32.60869 -18.000000000000004 32.60869 0 C 32.60869 18 18.000000000000004 32.60869 0 32.60869 C -18 32.60869 -32.60869 18.000000000000004 -32.60869 0 C -32.60869 -18 -18.000000000000004 -32.60869 0 -32.60869 z" stroke-linecap="round" />
</g>
<g transform="matrix(0.21 0 0 0.21 324.73 89.27)" id="mG0ymHlFkxJAZeFIloR7c"  >
<path style="stroke: rgb(0,0,0); stroke-width: 1; stroke-dasharray: none; stroke-linecap: butt; stroke-dashoffset: 0; stroke-linejoin: miter; stroke-miterlimit: 4; fill: rgb(0,0,0); fill-rule: nonzero; opacity: 1;" vector-effect="non-scaling-stroke"  transform=" translate(0, 0)" d="M 0 -32.60869 C 18 -32.60869 32.60869 -18.000000000000004 32.60869 0 C 32.60869 18 18.000000000000004 32.60869 0 32.60869 C -18 32.60869 -32.60869 18.000000000000004 -32.60869 0 C -32.60869 -18 -18.000000000000004 -32.60869 0 -32.60869 z" stroke-linecap="round" />
</g>
<g transform="matrix(0.21 0 0 0.21 342.41 89.27)" id="kFLdtvUpIwGKiAIGg7UOU"  >
<path style="stroke: rgb(0,0,0); stroke-width: 1; stroke-dasharray: none; stroke-linecap: butt; stroke-dashoffset: 0; stroke-linejoin: miter; stroke-miterlimit: 4; fill: rgb(0,0,0); fill-rule: nonzero; opacity: 1;" vector-effect="non-scaling-stroke"  transform=" translate(0, 0)" d="M 0 -32.60869 C 18 -32.60869 32.60869 -18.000000000000004 32.60869 0 C 32.60869 18 18.000000000000004 32.60869 0 32.60869 C -18 32.60869 -32.60869 18.000000000000004 -32.60869 0 C -32.60869 -18 -18.000000000000004 -32.60869 0 -32.60869 z" stroke-linecap="round" />
</g>
<g transform="matrix(0.21 0 0 0.21 379.92 15.19)" id="w6kNWesDruhFz3RMtFmeu"  >
<path style="stroke: rgb(0,0,0); stroke-width: 1; stroke-dasharray: none; stroke-linecap: butt; stroke-dashoffset: 0; stroke-linejoin: miter; stroke-miterlimit: 4; fill: rgb(0,0,0); fill-rule: nonzero; opacity: 1;" vector-effect="non-scaling-stroke"  transform=" translate(0, 0)" d="M 0 -32.60869 C 18 -32.60869 32.60869 -18.000000000000004 32.60869 0 C 32.60869 18 18.000000000000004 32.60869 0 32.60869 C -18 32.60869 -32.60869 18.000000000000004 -32.60869 0 C -32.60869 -18 -18.000000000000004 -32.60869 0 -32.60869 z" stroke-linecap="round" />
</g>
<g transform="matrix(0.21 0 0 0.21 379.92 33.64)" id="QC5mW5pfFhKV5FoR3Evtv"  >
<path style="stroke: rgb(0,0,0); stroke-width: 1; stroke-dasharray: none; stroke-linecap: butt; stroke-dashoffset: 0; stroke-linejoin: miter; stroke-miterlimit: 4; fill: rgb(0,0,0); fill-rule: nonzero; opacity: 1;" vector-effect="non-scaling-stroke"  transform=" translate(0, 0)" d="M 0 -32.60869 C 18 -32.60869 32.60869 -18.000000000000004 32.60869 0 C 32.60869 18 18.000000000000004 32.60869 0 32.60869 C -18 32.60869 -32.60869 18.000000000000004 -32.60869 0 C -32.60869 -18 -18.000000000000004 -32.60869 0 -32.60869 z" stroke-linecap="round" />
</g>
<g transform="matrix(0.21 0 0 0.21 379.92 52.92)" id="1iK4u1BnCttK2BDJ-Hdo1"  >
<path style="stroke: rgb(0,0,0); stroke-width: 1; stroke-dasharray: none; stroke-linecap: butt; stroke-dashoffset: 0; stroke-linejoin: miter; stroke-miterlimit: 4; fill: rgb(0,0,0); fill-rule: nonzero; opacity: 1;" vector-effect="non-scaling-stroke"  transform=" translate(0, 0)" d="M 0 -32.60869 C 18 -32.60869 32.60869 -18.000000000000004 32.60869 0 C 32.60869 18 18.000000000000004 32.60869 0 32.60869 C -18 32.60869 -32.60869 18.000000000000004 -32.60869 0 C -32.60869 -18 -18.000000000000004 -32.60869 0 -32.60869 z" stroke-linecap="round" />
</g>
<g transform="matrix(0.21 0 0 0.21 379.92 70.45)" id="Ug-5K_oP538PMO0LGqBm_"  >
<path style="stroke: rgb(0,0,0); stroke-width: 1; stroke-dasharray: none; stroke-linecap: butt; stroke-dashoffset: 0; stroke-linejoin: miter; stroke-miterlimit: 4; fill: rgb(0,0,0); fill-rule: nonzero; opacity: 1;" vector-effect="non-scaling-stroke"  transform=" translate(0, 0)" d="M 0 -32.60869 C 18 -32.60869 32.60869 -18.000000000000004 32.60869 0 C 32.60869 18 18.000000000000004 32.60869 0 32.60869 C -18 32.60869 -32.60869 18.000000000000004 -32.60869 0 C -32.60869 -18 -18.000000000000004 -32.60869 0 -32.60869 z" stroke-linecap="round" />
</g>
<g transform="matrix(0.21 0 0 0.21 379.92 90.8)" id="1ry8FJ1USXI9PgDKY55-S"  >
<path style="stroke: rgb(0,0,0); stroke-width: 1; stroke-dasharray: none; stroke-linecap: butt; stroke-dashoffset: 0; stroke-linejoin: miter; stroke-miterlimit: 4; fill: rgb(0,0,0); fill-rule: nonzero; opacity: 1;" vector-effect="non-scaling-stroke"  transform=" translate(0, 0)" d="M 0 -32.60869 C 18 -32.60869 32.60869 -18.000000000000004 32.60869 0 C 32.60869 18 18.000000000000004 32.60869 0 32.60869 C -18 32.60869 -32.60869 18.000000000000004 -32.60869 0 C -32.60869 -18 -18.000000000000004 -32.60869 0 -32.60869 z" stroke-linecap="round" />
</g>
<g transform="matrix(0.21 0 0 0.21 398.29 89.27)" id="rO5pA9URPy9V7An2pulua"  >
<path style="stroke: rgb(0,0,0); stroke-width: 1; stroke-dasharray: none; stroke-linecap: butt; stroke-dashoffset: 0; stroke-linejoin: miter; stroke-miterlimit: 4; fill: rgb(0,0,0); fill-rule: nonzero; opacity: 1;" vector-effect="non-scaling-stroke"  transform=" translate(0, 0)" d="M 0 -32.60869 C 18 -32.60869 32.60869 -18.000000000000004 32.60869 0 C 32.60869 18 18.000000000000004 32.60869 0 32.60869 C -18 32.60869 -32.60869 18.000000000000004 -32.60869 0 C -32.60869 -18 -18.000000000000004 -32.60869 0 -32.60869 z" stroke-linecap="round" />
</g>
<g transform="matrix(0.21 0 0 0.21 416.22 89.27)" id="Hufh4Zxzj0Jb8N6sZIE5c"  >
<path style="stroke: rgb(0,0,0); stroke-width: 1; stroke-dasharray: none; stroke-linecap: butt; stroke-dashoffset: 0; stroke-linejoin: miter; stroke-miterlimit: 4; fill: rgb(0,0,0); fill-rule: nonzero; opacity: 1;" vector-effect="non-scaling-stroke"  transform=" translate(0, 0)" d="M 0 -32.60869 C 18 -32.60869 32.60869 -18.000000000000004 32.60869 0 C 32.60869 18 18.000000000000004 32.60869 0 32.60869 C -18 32.60869 -32.60869 18.000000000000004 -32.60869 0 C -32.60869 -18 -18.000000000000004 -32.60869 0 -32.60869 z" stroke-linecap="round" />
</g>
<g transform="matrix(0.18 0 0 0.18 472.41 52.25)" id="NL-rD2-nZDruDXFiQ6O6O"  >
<path style="stroke: rgb(0,0,0); stroke-width: 1; stroke-dasharray: none; stroke-linecap: butt; stroke-dashoffset: 0; stroke-linejoin: miter; stroke-miterlimit: 4; fill: rgb(0,0,0); fill-rule: nonzero; opacity: 1;" vector-effect="non-scaling-stroke"  transform=" translate(-137.36, -237.12)" d="M 36.99782 0 C 57.337819999999994 0 73.84564 16.50783 73.84564 36.84782 C 73.84564 57.18782 57.337810000000005 73.69564 36.997820000000004 73.69564 C 16.657820000000005 73.69564 0.15000000000000568 57.18781 0.15000000000000568 36.84782 C 0.15000000000000568 16.50782 16.657830000000004 0 36.997820000000004 0 z M 36.84782 99.86 C 57.18782 99.86 73.69564 116.36783 73.69564 136.70782 C 73.69564 157.04782 57.18781 173.55563999999998 36.84782 173.55563999999998 C 16.50782 173.55563999999998 0 157.04780999999997 0 136.70781999999997 C 0 116.36781999999997 16.50783 99.85999999999997 36.84782 99.85999999999997 z M 36.84782 204.07 C 57.18782 204.07 73.69564 220.57783 73.69564 240.91782 C 73.69564 261.25782 57.18781 277.76564 36.84782 277.76564 C 16.50782 277.76564 0 261.25781 0 240.91782 C 0 220.57782 16.50783 204.07 36.84782 204.07 z M 37.14782 305.5 C 57.48782 305.5 73.99564000000001 322.00783 73.99564000000001 342.34782 C 73.99564000000001 362.68782 57.48781000000001 379.19564 37.14782000000001 379.19564 C 16.80782000000001 379.19564 0.30000000000001137 362.68781 0.30000000000001137 342.34782 C 0.30000000000001137 322.00782000000004 16.80783000000001 305.5 37.14782000000001 305.5 z M 237.86782 204.07 C 258.20781999999997 204.07 274.71564 220.57783 274.71564 240.91782 C 274.71564 261.25782 258.20781 277.76564 237.86782 277.76564 C 217.52782 277.76564 201.01999999999998 261.25781 201.01999999999998 240.91782 C 201.01999999999998 220.57782 217.52783 204.07 237.86782 204.07 z M 237.86782 99.86 C 258.20781999999997 99.86 274.71564 116.36783 274.71564 136.70782 C 274.71564 157.04782 258.20781 173.55563999999998 237.86782 173.55563999999998 C 217.52782 173.55563999999998 201.01999999999998 157.04780999999997 201.01999999999998 136.70781999999997 C 201.01999999999998 116.36781999999997 217.52783 99.85999999999997 237.86782 99.85999999999997 z M 136.12782 0.15 C 156.46782000000002 0.15 172.97564 16.657829999999997 172.97564 36.99782 C 172.97564 57.337819999999994 156.46781 73.84564 136.12781999999999 73.84564 C 115.78781999999998 73.84564 99.27999999999999 57.337810000000005 99.27999999999999 36.997820000000004 C 99.27999999999999 16.657820000000005 115.78782999999999 0.15000000000000568 136.12781999999999 0.15000000000000568 z M 237.86782 0.15 C 258.20781999999997 0.15 274.71564 16.657829999999997 274.71564 36.99782 C 274.71564 57.337819999999994 258.20781 73.84564 237.86782 73.84564 C 217.52782 73.84564 201.01999999999998 57.337810000000005 201.01999999999998 36.997820000000004 C 201.01999999999998 16.657820000000005 217.52783 0.15000000000000568 237.86782 0.15000000000000568 z M 237.86782 298.83 C 258.20781999999997 298.83 274.71564 315.33783 274.71564 335.67782 C 274.71564 356.01782 258.20781 372.52564 237.86782 372.52564 C 217.52782 372.52564 201.01999999999998 356.01781 201.01999999999998 335.67782 C 201.01999999999998 315.33782 217.52783 298.83 237.86782 298.83 z M 37.14782 400.55 C 57.48782 400.55 73.99564000000001 417.05783 73.99564000000001 437.39782 C 73.99564000000001 457.73782 57.48781000000001 474.24564000000004 37.14782000000001 474.24564000000004 C 16.80782000000001 474.24564000000004 0.30000000000001137 457.73781 0.30000000000001137 437.39782 C 0.30000000000001137 417.05782000000005 16.80783000000001 400.55 37.14782000000001 400.55 z M 237.86782 400.55 C 258.20781999999997 400.55 274.71564 417.05783 274.71564 437.39782 C 274.71564 457.73782 258.20781 474.24564000000004 237.86782 474.24564000000004 C 217.52782 474.24564000000004 201.01999999999998 457.73781 201.01999999999998 437.39782 C 201.01999999999998 417.05782000000005 217.52783 400.55 237.86782 400.55 z M 144.24782 400.55 C 164.58782 400.55 181.09564 417.05783 181.09564 437.39782 C 181.09564 457.73782 164.58781 474.24564000000004 144.24782 474.24564000000004 C 123.90781999999999 474.24564000000004 107.39999999999999 457.73781 107.39999999999999 437.39782 C 107.39999999999999 417.05782000000005 123.90782999999999 400.55 144.24782 400.55 z" stroke-linecap="round" />
</g>
</svg>